<?xml version="1.0" standalone="no"?>
<!DOCTYPE svg PUBLIC "-//W3C//DTD SVG 20010904//EN"
 "http://www.w3.org/TR/2001/REC-SVG-20010904/DTD/svg10.dtd">
<svg version="1.0" xmlns="http://www.w3.org/2000/svg"
 width="2600.000000pt" height="3583.000000pt" viewBox="0 0 2600.000000 3583.000000"
 preserveAspectRatio="xMidYMid meet">

<g transform="translate(0.000000,3583.000000) scale(0.100000,-0.100000)"
fill="#000000" stroke="none">
<path d="M13715 35820 c-1159 -49 -2191 -218 -3155 -517 -176 -54 -266 -100
-323 -163 -55 -61 -83 -120 -156 -326 -133 -376 -665 -1793 -694 -1851 -38
-72 -85 -80 -168 -27 -56 35 -448 322 -1209 887 -332 247 -606 445 -607 440
-5 -13 265 -4610 273 -4652 15 -85 58 -142 221 -289 67 -60 99 -97 119 -138
l27 -56 -17 -54 c-19 -59 -75 -123 -219 -247 -84 -72 -175 -171 -442 -482
-285 -333 -276 -318 -359 -585 -546 -1756 -977 -3491 -1271 -5107 -32 -174
-64 -321 -73 -337 -9 -16 -28 -37 -42 -48 -25 -18 -54 -19 -560 -22 -538 -3
-650 -9 -1045 -52 -615 -67 -1329 -203 -2164 -414 -299 -75 -340 -93 -398
-168 -18 -24 -39 -67 -47 -95 -8 -29 -80 -302 -160 -607 -675 -2575 -1065
-4809 -1191 -6805 -32 -521 -37 -654 -42 -1305 -6 -790 8 -1273 58 -1895 104
-1315 358 -2501 774 -3620 121 -325 190 -487 229 -538 48 -64 105 -92 311
-156 105 -32 354 -111 555 -176 963 -308 1483 -426 2055 -466 300 -21 682 -2
950 48 55 10 137 18 182 18 73 0 84 -3 109 -25 53 -50 62 -87 99 -446 66 -635
129 -1143 226 -1824 106 -746 339 -2242 361 -2310 25 -83 89 -131 488 -370
1059 -634 1985 -950 2995 -1021 211 -15 683 -6 885 15 626 69 1186 230 1800
518 340 160 803 440 1140 688 92 68 113 89 134 133 32 65 30 39 72 877 57
1151 132 2560 168 3162 36 614 36 610 93 624 15 4 57 2 93 -4 705 -127 1167
-172 1910 -188 162 -3 307 -10 321 -15 29 -11 49 -46 49 -86 0 -14 -9 -78 -20
-142 -67 -398 -121 -986 -136 -1466 -22 -751 104 -1581 318 -2102 124 -302
272 -494 519 -670 458 -327 1024 -591 1537 -717 334 -82 602 -116 967 -123
837 -17 1729 155 2830 544 329 116 430 166 521 257 126 126 143 175 298 846
641 2783 1070 5864 1346 9650 133 1835 197 3404 215 5315 7 678 13 762 62 919
73 235 134 320 457 641 159 157 302 310 362 385 366 460 567 928 630 1475 22
193 15 613 -14 800 -110 699 -358 1292 -937 2240 -432 707 -519 830 -755 1065
-300 299 -620 482 -1025 584 -77 19 -174 49 -215 66 -41 17 -111 42 -156 56
-86 26 -120 47 -153 93 -11 15 -50 130 -86 256 -217 751 -531 1385 -1050 2123
-24 34 -53 88 -65 120 l-22 57 1 1940 c1 1863 0 1944 -18 2030 -29 140 -111
285 -216 385 -102 97 -219 269 -419 618 -122 212 -604 980 -1080 1716 l-58 90
-213 -593 c-117 -326 -215 -594 -216 -595 -4 -4 -541 775 -973 1408 -131 193
-252 366 -270 384 -44 47 -112 88 -176 106 -101 29 -763 124 -1250 180 -495
57 -978 98 -1495 126 -256 14 -1152 20 -1400 10z m1445 -280 c489 -29 865 -62
1345 -116 399 -45 959 -120 1042 -139 151 -35 294 -113 378 -207 25 -28 137
-186 249 -352 111 -166 326 -481 476 -701 519 -759 809 -1204 1080 -1655 181
-300 250 -429 250 -463 0 -30 -27 -52 -75 -61 -27 -5 -716 -56 -1970 -146
-1182 -84 -2140 -140 -2980 -175 -203 -8 -487 -20 -630 -27 -341 -16 -1109
-16 -1340 0 -1168 83 -1947 333 -3052 978 -225 131 -268 162 -293 207 -35 62
-25 107 110 462 165 435 326 868 486 1309 74 203 147 392 161 419 54 97 123
134 426 222 890 258 1806 405 2847 455 234 11 1258 4 1490 -10z m5102 -2125
c256 -401 547 -858 647 -1014 100 -157 191 -302 202 -323 30 -58 22 -99 -21
-121 -30 -16 -51 -18 -150 -13 -105 6 -123 4 -200 -19 -253 -77 -413 -18 -566
210 -23 33 -78 130 -124 215 -106 197 -211 374 -368 620 -137 214 -157 253
-172 331 -14 70 -2 129 53 270 25 63 82 223 128 356 64 186 86 240 95 230 7
-6 221 -340 476 -742z m-12293 92 c1285 -972 2197 -1536 2981 -1844 629 -248
1280 -390 1990 -434 127 -8 381 -10 810 -6 877 9 1555 36 2695 107 897 57
3165 229 4280 326 160 13 320 25 357 26 76 1 112 -16 129 -59 6 -17 10 -624
11 -1737 l1 -1711 -26 -73 c-33 -95 -75 -159 -150 -228 -68 -63 -184 -124
-282 -149 -82 -20 -907 -151 -1420 -224 -1629 -234 -2764 -322 -3980 -308
-621 7 -935 22 -1495 73 -1172 105 -2264 315 -3325 639 -132 41 -294 92 -360
115 -514 178 -1003 467 -1490 883 -265 226 -685 659 -731 753 -24 50 -26 68
-50 470 -135 2309 -204 3487 -208 3527 -3 26 -2 47 1 47 4 0 122 -87 262 -193z
m544 -4808 c12 -7 69 -51 127 -99 716 -593 1527 -938 2890 -1229 1260 -269
2163 -386 3315 -432 331 -13 1386 -7 1695 10 997 55 1636 122 2917 306 1272
182 1283 184 1343 215 164 85 279 76 397 -32 53 -49 114 -141 256 -385 284
-488 465 -873 591 -1261 38 -115 44 -146 35 -163 -7 -14 -16 -18 -27 -14 -41
16 -328 89 -562 144 -1020 238 -1990 369 -3055 412 -321 13 -1119 7 -1425 -11
-1174 -67 -2204 -212 -3400 -476 -564 -125 -1448 -355 -1525 -397 -75 -42 -95
-81 -208 -424 -281 -847 -450 -1563 -541 -2294 -184 -1472 -12 -2729 524
-3824 146 -298 178 -332 456 -483 243 -133 747 -386 984 -495 1818 -835 3604
-1233 5400 -1204 887 15 1674 118 2530 332 412 103 943 268 1192 371 62 26
151 54 198 64 69 14 188 65 630 265 300 136 569 258 597 271 l53 24 15 -29
c19 -39 19 -11 6 -816 -41 -2581 -164 -4841 -396 -7295 -246 -2586 -629 -5131
-1045 -6940 -263 -1140 -245 -1079 -324 -1125 -23 -13 -133 -57 -246 -98
-1043 -380 -1817 -533 -2615 -514 -627 15 -1079 115 -1576 349 -212 100 -545
306 -718 444 -182 145 -307 372 -384 699 -34 142 -92 483 -111 655 -76 673
-51 1396 80 2295 29 204 37 236 69 273 44 52 88 62 314 73 539 24 1103 77
1746 164 569 78 633 91 680 146 37 44 40 87 17 202 -11 56 -25 129 -31 161
-12 65 -30 92 -78 112 -49 21 -100 17 -365 -26 -1042 -170 -2080 -252 -2998
-237 -719 12 -1264 59 -1955 167 -240 38 -275 46 -452 106 -273 92 -346 89
-400 -16 -33 -66 -43 -152 -43 -381 0 -113 -18 -534 -40 -935 -79 -1450 -134
-2543 -160 -3174 -6 -146 -15 -294 -21 -330 -13 -85 -57 -174 -116 -235 -141
-144 -784 -507 -1183 -668 -1126 -456 -2268 -483 -3465 -82 -519 173 -1113
454 -1354 639 -221 170 -364 407 -416 691 -26 139 -309 2245 -404 3010 -463
3698 -609 7194 -446 10635 140 2944 521 5751 1156 8515 104 453 147 623 166
660 8 17 37 132 63 257 115 538 244 1027 435 1643 144 463 260 807 305 895 92
183 248 374 476 585 65 60 169 157 229 216 138 134 152 142 198 118z m9377
-3139 c2088 -82 3883 -403 5496 -983 326 -118 412 -164 520 -280 58 -62 317
-433 527 -752 242 -369 423 -707 527 -985 60 -160 62 -169 71 -300 10 -150 -1
-349 -25 -467 -89 -419 -364 -682 -961 -916 -426 -167 -866 -277 -1297 -323
-138 -15 -470 -16 -3393 -17 -2973 0 -3253 1 -3394 17 -383 42 -639 118 -1016
302 -1019 496 -1703 1367 -2028 2579 -99 369 -129 584 -162 1168 l-16 277 21
30 c35 50 98 79 216 101 60 11 152 31 204 44 319 80 906 200 1315 269 1168
196 2334 277 3395 236z m-12428 -3861 c92 -30 94 -66 29 -457 -69 -411 -118
-760 -195 -1382 -36 -289 -84 -673 -107 -855 -130 -1046 -231 -2515 -291
-4255 -18 -497 -17 -2825 0 -3360 54 -1692 140 -3018 283 -4385 16 -159 27
-304 24 -322 -15 -80 -66 -107 -273 -143 -239 -42 -399 -52 -702 -47 -574 10
-1072 108 -1884 373 -176 57 -395 125 -486 150 -210 57 -271 87 -346 167 -90
96 -138 207 -298 694 -342 1044 -554 2180 -631 3388 -49 768 -49 1758 0 2630
76 1352 278 2811 597 4310 38 182 85 411 104 510 80 418 197 934 335 1475 159
623 249 953 267 984 39 66 62 74 517 182 908 216 1630 322 2415 358 169 8 605
-2 642 -15z"/>
<path d="M16725 30875 c-232 -24 -377 -44 -432 -60 -62 -18 -108 -61 -123
-113 -14 -53 -12 -176 6 -353 9 -85 16 -199 17 -254 2 -85 -1 -105 -19 -135
-29 -51 -73 -76 -172 -99 -184 -43 -261 -51 -400 -39 -201 16 -273 -8 -324
-106 -33 -61 -36 -212 -9 -392 11 -76 27 -204 36 -283 21 -182 44 -259 90
-300 56 -49 87 -53 439 -49 320 3 321 3 369 -21 80 -39 102 -104 137 -411 42
-374 67 -432 201 -461 63 -14 248 -9 594 16 287 20 288 21 324 51 37 31 46 77
32 180 -10 73 -34 382 -48 616 l-6 97 35 35 c41 41 41 41 398 56 140 6 279 13
309 16 57 5 132 33 165 62 54 48 70 163 42 299 -25 118 -36 230 -46 472 -11
256 -18 286 -73 305 -32 11 -435 -16 -593 -39 -290 -44 -354 15 -354 324 0
146 -17 355 -34 420 -21 77 -56 125 -113 152 -42 20 -65 24 -178 26 -71 1
-193 -5 -270 -12z"/>
</g>
</svg>
